<mxfile host="app.diagrams.net" agent="Mozilla/5.0 (Windows NT 10.0; Win64; x64) AppleWebKit/537.36 (KHTML, like Gecko) Chrome/126.0.0.0 Safari/537.36 OPR/112.0.0.0" version="24.7.6">
  <diagram name="Page-1" id="166IGVbTgE2KIng44eed">
    <mxGraphModel dx="1645" dy="840" grid="1" gridSize="10" guides="1" tooltips="1" connect="1" arrows="1" fold="1" page="1" pageScale="1" pageWidth="850" pageHeight="1100" math="0" shadow="0">
      <root>
        <mxCell id="0" />
        <mxCell id="1" parent="0" />
        <mxCell id="K9R86nmCO9x4h_wOvHc5-1" value="KBD + Keys" style="rounded=0;whiteSpace=wrap;html=1;fillColor=#e1d5e7;strokeColor=#9673a6;" vertex="1" parent="1">
          <mxGeometry x="700" y="180" width="120" height="60" as="geometry" />
        </mxCell>
        <mxCell id="K9R86nmCO9x4h_wOvHc5-32" style="edgeStyle=orthogonalEdgeStyle;rounded=0;orthogonalLoop=1;jettySize=auto;html=1;entryX=1;entryY=0;entryDx=0;entryDy=0;" edge="1" parent="1" source="K9R86nmCO9x4h_wOvHc5-2" target="K9R86nmCO9x4h_wOvHc5-24">
          <mxGeometry relative="1" as="geometry">
            <mxPoint x="750" y="580" as="targetPoint" />
            <Array as="points">
              <mxPoint x="730" y="570" />
              <mxPoint x="485" y="570" />
            </Array>
          </mxGeometry>
        </mxCell>
        <mxCell id="K9R86nmCO9x4h_wOvHc5-2" value="Player" style="rounded=0;whiteSpace=wrap;html=1;fillColor=#e1d5e7;strokeColor=#9673a6;" vertex="1" parent="1">
          <mxGeometry x="690" y="310" width="120" height="60" as="geometry" />
        </mxCell>
        <mxCell id="K9R86nmCO9x4h_wOvHc5-3" value="VGA" style="rounded=0;whiteSpace=wrap;html=1;fillColor=#f8cecc;strokeColor=#b85450;" vertex="1" parent="1">
          <mxGeometry x="730" y="640" width="120" height="60" as="geometry" />
        </mxCell>
        <mxCell id="K9R86nmCO9x4h_wOvHc5-19" style="edgeStyle=orthogonalEdgeStyle;rounded=0;orthogonalLoop=1;jettySize=auto;html=1;exitX=1;exitY=0.5;exitDx=0;exitDy=0;entryX=0;entryY=0;entryDx=0;entryDy=0;" edge="1" parent="1" source="K9R86nmCO9x4h_wOvHc5-4">
          <mxGeometry relative="1" as="geometry">
            <mxPoint x="360" y="640" as="targetPoint" />
          </mxGeometry>
        </mxCell>
        <mxCell id="K9R86nmCO9x4h_wOvHc5-4" value="GameOverScreen" style="rounded=0;whiteSpace=wrap;html=1;fillColor=#ffe6cc;strokeColor=#d79b00;" vertex="1" parent="1">
          <mxGeometry x="150" y="460" width="120" height="60" as="geometry" />
        </mxCell>
        <mxCell id="K9R86nmCO9x4h_wOvHc5-6" value="Background" style="rounded=0;whiteSpace=wrap;html=1;fillColor=#ffe6cc;strokeColor=#d79b00;" vertex="1" parent="1">
          <mxGeometry x="270" y="400" width="120" height="60" as="geometry" />
        </mxCell>
        <mxCell id="K9R86nmCO9x4h_wOvHc5-17" style="edgeStyle=orthogonalEdgeStyle;rounded=0;orthogonalLoop=1;jettySize=auto;html=1;exitX=1;exitY=0.5;exitDx=0;exitDy=0;entryX=0;entryY=0.5;entryDx=0;entryDy=0;" edge="1" parent="1" source="K9R86nmCO9x4h_wOvHc5-7">
          <mxGeometry relative="1" as="geometry">
            <mxPoint x="360" y="670" as="targetPoint" />
          </mxGeometry>
        </mxCell>
        <mxCell id="K9R86nmCO9x4h_wOvHc5-7" value="Monster" style="rounded=0;whiteSpace=wrap;html=1;fillColor=#d5e8d4;strokeColor=#82b366;" vertex="1" parent="1">
          <mxGeometry x="60" y="620" width="120" height="60" as="geometry" />
        </mxCell>
        <mxCell id="K9R86nmCO9x4h_wOvHc5-18" style="edgeStyle=orthogonalEdgeStyle;rounded=0;orthogonalLoop=1;jettySize=auto;html=1;exitX=1;exitY=0.5;exitDx=0;exitDy=0;entryX=0;entryY=0.25;entryDx=0;entryDy=0;" edge="1" parent="1" source="K9R86nmCO9x4h_wOvHc5-8">
          <mxGeometry relative="1" as="geometry">
            <mxPoint x="360" y="655" as="targetPoint" />
          </mxGeometry>
        </mxCell>
        <mxCell id="K9R86nmCO9x4h_wOvHc5-8" value="Shields" style="rounded=0;whiteSpace=wrap;html=1;fillColor=#d5e8d4;strokeColor=#82b366;" vertex="1" parent="1">
          <mxGeometry x="110" y="530" width="120" height="60" as="geometry" />
        </mxCell>
        <mxCell id="K9R86nmCO9x4h_wOvHc5-29" style="edgeStyle=orthogonalEdgeStyle;rounded=0;orthogonalLoop=1;jettySize=auto;html=1;exitX=0;exitY=1;exitDx=0;exitDy=0;entryX=0;entryY=0;entryDx=0;entryDy=0;" edge="1" parent="1" source="K9R86nmCO9x4h_wOvHc5-10" target="K9R86nmCO9x4h_wOvHc5-7">
          <mxGeometry relative="1" as="geometry" />
        </mxCell>
        <mxCell id="K9R86nmCO9x4h_wOvHc5-10" value="Hit" style="rounded=0;whiteSpace=wrap;html=1;fillColor=#dae8fc;strokeColor=#6c8ebf;" vertex="1" parent="1">
          <mxGeometry x="30" y="330" width="120" height="60" as="geometry" />
        </mxCell>
        <mxCell id="K9R86nmCO9x4h_wOvHc5-11" value="Game&lt;div&gt;Controller&lt;/div&gt;" style="rounded=0;whiteSpace=wrap;html=1;fillColor=#fff2cc;strokeColor=#d6b656;" vertex="1" parent="1">
          <mxGeometry x="485" y="430" width="120" height="60" as="geometry" />
        </mxCell>
        <mxCell id="K9R86nmCO9x4h_wOvHc5-12" value="Collisions" style="rounded=0;whiteSpace=wrap;html=1;fillColor=#dae8fc;strokeColor=#6c8ebf;" vertex="1" parent="1">
          <mxGeometry x="485" y="220" width="120" height="60" as="geometry" />
        </mxCell>
        <mxCell id="K9R86nmCO9x4h_wOvHc5-16" style="edgeStyle=orthogonalEdgeStyle;rounded=0;orthogonalLoop=1;jettySize=auto;html=1;exitX=1;exitY=0.5;exitDx=0;exitDy=0;entryX=0;entryY=0.75;entryDx=0;entryDy=0;" edge="1" parent="1" source="K9R86nmCO9x4h_wOvHc5-13">
          <mxGeometry relative="1" as="geometry">
            <mxPoint x="360" y="685" as="targetPoint" />
          </mxGeometry>
        </mxCell>
        <mxCell id="K9R86nmCO9x4h_wOvHc5-13" value="Banana" style="rounded=0;whiteSpace=wrap;html=1;fillColor=#d5e8d4;strokeColor=#82b366;" vertex="1" parent="1">
          <mxGeometry x="70" y="720" width="120" height="60" as="geometry" />
        </mxCell>
        <mxCell id="K9R86nmCO9x4h_wOvHc5-15" style="edgeStyle=orthogonalEdgeStyle;rounded=0;orthogonalLoop=1;jettySize=auto;html=1;exitX=0.5;exitY=0;exitDx=0;exitDy=0;entryX=0.5;entryY=1;entryDx=0;entryDy=0;" edge="1" parent="1" source="K9R86nmCO9x4h_wOvHc5-14">
          <mxGeometry relative="1" as="geometry">
            <mxPoint x="420" y="700" as="targetPoint" />
          </mxGeometry>
        </mxCell>
        <mxCell id="K9R86nmCO9x4h_wOvHc5-14" value="Projectiles" style="rounded=0;whiteSpace=wrap;html=1;fillColor=#d5e8d4;strokeColor=#82b366;" vertex="1" parent="1">
          <mxGeometry x="245" y="820" width="120" height="60" as="geometry" />
        </mxCell>
        <mxCell id="K9R86nmCO9x4h_wOvHc5-20" style="edgeStyle=orthogonalEdgeStyle;rounded=0;orthogonalLoop=1;jettySize=auto;html=1;exitX=0.75;exitY=1;exitDx=0;exitDy=0;entryX=0.349;entryY=0.024;entryDx=0;entryDy=0;entryPerimeter=0;" edge="1" parent="1" source="K9R86nmCO9x4h_wOvHc5-6">
          <mxGeometry relative="1" as="geometry">
            <mxPoint x="401.8800000000001" y="641.44" as="targetPoint" />
          </mxGeometry>
        </mxCell>
        <mxCell id="K9R86nmCO9x4h_wOvHc5-21" style="edgeStyle=orthogonalEdgeStyle;rounded=0;orthogonalLoop=1;jettySize=auto;html=1;exitX=0.25;exitY=1;exitDx=0;exitDy=0;entryX=0.692;entryY=-0.05;entryDx=0;entryDy=0;entryPerimeter=0;startArrow=classic;startFill=1;" edge="1" parent="1">
          <mxGeometry relative="1" as="geometry">
            <mxPoint x="480" y="460" as="sourcePoint" />
            <mxPoint x="443.03999999999996" y="637" as="targetPoint" />
          </mxGeometry>
        </mxCell>
        <mxCell id="K9R86nmCO9x4h_wOvHc5-26" style="edgeStyle=orthogonalEdgeStyle;rounded=0;orthogonalLoop=1;jettySize=auto;html=1;exitX=1;exitY=0.5;exitDx=0;exitDy=0;entryX=0;entryY=0.5;entryDx=0;entryDy=0;" edge="1" parent="1" source="K9R86nmCO9x4h_wOvHc5-23" target="K9R86nmCO9x4h_wOvHc5-3">
          <mxGeometry relative="1" as="geometry" />
        </mxCell>
        <mxCell id="K9R86nmCO9x4h_wOvHc5-23" value="MUX" style="rounded=0;whiteSpace=wrap;html=1;fillColor=#f8cecc;strokeColor=#b85450;" vertex="1" parent="1">
          <mxGeometry x="570" y="640" width="120" height="60" as="geometry" />
        </mxCell>
        <mxCell id="K9R86nmCO9x4h_wOvHc5-25" style="edgeStyle=orthogonalEdgeStyle;rounded=0;orthogonalLoop=1;jettySize=auto;html=1;exitX=1;exitY=0.5;exitDx=0;exitDy=0;entryX=0;entryY=0.5;entryDx=0;entryDy=0;" edge="1" parent="1" source="K9R86nmCO9x4h_wOvHc5-24" target="K9R86nmCO9x4h_wOvHc5-23">
          <mxGeometry relative="1" as="geometry" />
        </mxCell>
        <mxCell id="K9R86nmCO9x4h_wOvHc5-24" value="Draw Request" style="rounded=0;whiteSpace=wrap;html=1;fillColor=#fff2cc;strokeColor=#d6b656;" vertex="1" parent="1">
          <mxGeometry x="365" y="640" width="120" height="60" as="geometry" />
        </mxCell>
        <mxCell id="K9R86nmCO9x4h_wOvHc5-28" value="" style="endArrow=classic;startArrow=classic;html=1;rounded=0;exitX=0.5;exitY=0;exitDx=0;exitDy=0;entryX=0.5;entryY=1;entryDx=0;entryDy=0;" edge="1" parent="1" source="K9R86nmCO9x4h_wOvHc5-11" target="K9R86nmCO9x4h_wOvHc5-12">
          <mxGeometry width="50" height="50" relative="1" as="geometry">
            <mxPoint x="500" y="330" as="sourcePoint" />
            <mxPoint x="550" y="280" as="targetPoint" />
          </mxGeometry>
        </mxCell>
        <mxCell id="K9R86nmCO9x4h_wOvHc5-30" style="edgeStyle=orthogonalEdgeStyle;rounded=0;orthogonalLoop=1;jettySize=auto;html=1;entryX=0.169;entryY=-0.013;entryDx=0;entryDy=0;entryPerimeter=0;" edge="1" parent="1" source="K9R86nmCO9x4h_wOvHc5-10" target="K9R86nmCO9x4h_wOvHc5-11">
          <mxGeometry relative="1" as="geometry" />
        </mxCell>
        <mxCell id="K9R86nmCO9x4h_wOvHc5-31" style="edgeStyle=orthogonalEdgeStyle;rounded=0;orthogonalLoop=1;jettySize=auto;html=1;entryX=0.571;entryY=0.006;entryDx=0;entryDy=0;entryPerimeter=0;" edge="1" parent="1" source="K9R86nmCO9x4h_wOvHc5-1" target="K9R86nmCO9x4h_wOvHc5-2">
          <mxGeometry relative="1" as="geometry" />
        </mxCell>
      </root>
    </mxGraphModel>
  </diagram>
</mxfile>
